<?xml version="1.0" encoding="UTF-8" standalone="no"?>
<!-- Created with Inkscape (http://www.inkscape.org/) -->

<svg
   width="4.5674243mm"
   height="4.4735851mm"
   viewBox="0 0 4.5674243 4.4735851"
   version="1.1"
   id="svg11743"
   xmlns="http://www.w3.org/2000/svg"
   xmlns:svg="http://www.w3.org/2000/svg">
  <defs
     id="defs11740" />
  <g
     id="layer1"
     transform="translate(-101.85915,-113.47749)">
    <path
       id="ytube"
       style="fill:#ffffff;fill-opacity:1;fill-rule:nonzero;stroke:none;stroke-width:0.352778"
       d="M 104.15513 113.47749 C 102.88796 113.47431 101.86315 114.46862 101.85915 115.70474 C 101.85526 116.94264 102.87429 117.94812 104.13653 117.95112 C 105.39947 117.9543 106.42431 116.95414 106.42631 115.71766 C 106.42843 114.48576 105.40925 113.47949 104.15513 113.47749 z M 104.521 114.96629 C 104.64192 114.96566 104.76295 114.96642 104.88377 114.97042 C 105.09932 114.97712 105.20605 115.05624 105.21915 115.26756 C 105.23805 115.57306 105.23302 115.88206 105.21502 116.18792 C 105.20514 116.35828 105.09955 116.44588 104.92563 116.44888 C 104.4141 116.45788 103.90253 116.46102 103.39136 116.45302 C 103.17123 116.44913 103.07359 116.3548 103.06269 116.13573 C 103.04809 115.84857 103.04989 115.56005 103.06579 115.27325 C 103.07743 115.06827 103.18483 114.97846 103.39756 114.97146 C 103.6512 114.96346 103.90475 114.96939 104.15875 114.96939 C 104.27958 114.96889 104.40009 114.96691 104.521 114.96629 z M 103.92466 115.39469 L 103.92466 115.98328 C 104.1208 115.88486 104.3048 115.79238 104.50447 115.69183 C 104.30268 115.58812 104.11868 115.49419 103.92466 115.39469 z " />
  </g>
</svg>
