<?xml version="1.0" encoding="UTF-8" standalone="no"?>
<!-- Created with Inkscape (http://www.inkscape.org/) -->

<svg
   width="4.5674243mm"
   height="4.4735851mm"
   viewBox="0 0 4.5674243 4.4735851"
   version="1.1"
   id="svg11743"
   xmlns="http://www.w3.org/2000/svg"
   xmlns:svg="http://www.w3.org/2000/svg">
  <defs
     id="defs11740" />
  <g
     id="layer1"
     transform="translate(-101.85915,-113.47749)">
    <path
       d="m 104.62165,115.70567 h -0.30092 v 1.07739 h -0.45543 v -1.06045 c -0.0836,-0.008 -0.15029,-0.0127 -0.2212,-0.0169 v -0.35912 c 0.0709,-0.004 0.13759,-0.008 0.21731,-0.0123 v -0.28434 c 0.008,-0.248 0.11677,-0.37606 0.3676,-0.40499 0.1337,-0.0166 0.27164,-0.004 0.41769,-0.004 v 0.37606 c -0.0667,0 -0.1337,0.004 -0.20038,0 -0.0921,-0.004 -0.13794,0.0332 -0.1337,0.12347 0.004,0.0621 0.004,0.12418 0.004,0.19826 h 0.33408 c -0.008,0.12771 -0.0208,0.24342 -0.0293,0.36724 m -0.46778,-2.22849 c -1.27036,-0.004 -2.29447,0.99871 -2.29447,2.24119 0,1.22979 1.02411,2.22885 2.28212,2.23274 1.26189,0 2.28106,-0.99449 2.28565,-2.22462 0,-1.24248 -1.01142,-2.24543 -2.2733,-2.24931"
       style="fill:#ffffff;fill-opacity:1;fill-rule:nonzero;stroke:none;stroke-width:0.352778"
       id="fbook" />
  </g>
</svg>
