<?xml version="1.0" encoding="UTF-8" standalone="no"?>
<!-- Created with Inkscape (http://www.inkscape.org/) -->

<svg
   width="4.5674243mm"
   height="4.4735851mm"
   viewBox="0 0 4.5674243 4.4735851"
   version="1.1"
   id="svg11743"
   xmlns="http://www.w3.org/2000/svg"
   xmlns:svg="http://www.w3.org/2000/svg">
  <defs
     id="defs11740" />
  <g
     id="layer1"
     transform="translate(-101.85915,-113.47749)">
    <path
       id="igram"
       style="fill:#ffffff;fill-opacity:1;fill-rule:nonzero;stroke:none;stroke-width:0.352778"
       d="m 104.14118,113.4775 c -1.25378,-0.004 -2.28203,1.00683 -2.28203,2.2412 0.005,1.23013 1.02437,2.23294 2.28203,2.23294 1.26612,0 2.28617,-0.99882 2.28617,-2.23707 0,-1.23789 -1.01582,-2.23284 -2.28617,-2.23707 z m 0.002,1.26193 c 0.15558,0 0.31091,0.003 0.46561,0.009 0.29244,0.008 0.49372,0.18159 0.51418,0.46663 0.0254,0.32985 0.0255,0.66406 0.004,0.99426 v 5.2e-4 c -0.0208,0.27658 -0.19609,0.44566 -0.48007,0.46612 -0.33444,0.0208 -0.67739,0.0207 -1.01183,-0.004 -0.28822,-0.0166 -0.459,-0.21864 -0.47594,-0.50333 -0.008,-0.15275 -0.004,-0.30158 -0.004,-0.4501 0,-0.15699 -0.008,-0.30958 0.004,-0.46198 0.0169,-0.29316 0.2174,-0.49528 0.51832,-0.50798 0.15469,-0.006 0.31003,-0.009 0.4656,-0.009 z m -0.0543,0.18294 c -0.1371,9.1e-4 -0.27414,0.005 -0.41134,0.0124 -0.20885,0.0123 -0.32176,0.12377 -0.33022,0.32556 -0.0166,0.30551 -0.0166,0.6071 0,0.91261 0.0127,0.21448 0.14623,0.31786 0.36742,0.33021 0.14252,0.008 0.2802,0 0.42272,0 0.14605,0 0.29226,0.008 0.43408,0 0.23848,-0.0123 0.37232,-0.13221 0.3762,-0.36328 0.008,-0.28469 0.008,-0.56962 0,-0.85008 -0.004,-0.21484 -0.11713,-0.34268 -0.33021,-0.35502 -0.17621,-0.009 -0.35238,-0.0136 -0.52865,-0.0124 z m 0.57309,0.16071 c 0.002,-3.2e-4 0.004,-2.6e-4 0.006,0 0.0497,0.008 0.11746,0.0659 0.12557,0.10749 0.004,0.0413 -0.0543,0.0949 -0.0879,0.14004 h -0.0543 c -0.0289,-0.0452 -0.0876,-0.0907 -0.0837,-0.13591 0,-0.0387 0.0626,-0.10678 0.0946,-0.11162 z m -0.5209,0.13643 c 0.28399,-0.004 0.50994,0.21486 0.51418,0.49144 0.004,0.27622 -0.23019,0.50756 -0.51418,0.50333 -0.28011,0 -0.50126,-0.22314 -0.50126,-0.49971 -0.004,-0.27623 0.22115,-0.49506 0.50126,-0.49506 z m -0.008,0.17725 c -0.169,0.006 -0.31316,0.14868 -0.31316,0.31781 0,0.17357 0.14151,0.31781 0.32142,0.31781 0.17957,0.004 0.32608,-0.13209 0.32608,-0.30954 0.004,-0.17744 -0.13385,-0.32208 -0.30954,-0.32608 -0.008,-3.8e-4 -0.0165,-3e-4 -0.0248,0 z" />
  </g>
</svg>
