<?xml version="1.0" encoding="UTF-8" standalone="no"?>
<!-- Created with Inkscape (http://www.inkscape.org/) -->

<svg
   width="27.252254mm"
   height="9.1213512mm"
   viewBox="0 0 27.252254 9.1213512"
   version="1.1"
   id="svg7352"
   xmlns="http://www.w3.org/2000/svg"
   xmlns:svg="http://www.w3.org/2000/svg">
  <defs
     id="defs7349">
    <clipPath
       clipPathUnits="userSpaceOnUse"
       id="clipPath4694">
      <path
         d="M 0,500 H 750 V 0 H 0 Z"
         id="path4692" />
    </clipPath>
  </defs>
  <g
     id="layer1"
     transform="translate(-77.292236,-57.704625)">
    <g
       id="g4688"
       transform="matrix(0.35277776,0,0,-0.35277778,35.958951,199.73555)">
      <g
         id="g4690"
         clip-path="url(#clipPath4694)">
        <g
           id="g4696"
           transform="translate(120.063,393.1094)">
          <path
             d="M 0,0 C -0.009,-3.716 2.994,-6.741 6.708,-6.756 10.423,-6.77 13.47,-3.76 13.483,-0.062 13.497,3.691 10.514,6.717 6.786,6.729 3.016,6.741 0.009,3.76 0,0 m 19.559,-10.703 c -0.803,-0.803 -1.586,-1.585 -2.392,-2.39 -0.314,0.306 -0.642,0.623 -0.966,0.943 -1.345,1.323 -2.693,2.643 -4.028,3.976 -0.211,0.21 -0.348,0.229 -0.612,0.068 -5.564,-3.409 -12.827,-0.317 -14.231,6.048 -1.183,5.363 2.364,10.555 7.811,11.436 5.19,0.84 10.166,-2.828 10.869,-7.998 0.328,-2.416 -0.176,-4.633 -1.507,-6.669 -0.041,-0.063 -0.081,-0.125 -0.119,-0.19 -0.01,-0.017 -0.011,-0.04 -0.026,-0.096 1.729,-1.705 3.472,-3.423 5.201,-5.128"
             style="fill:#ffffff;fill-opacity:1;fill-rule:nonzero;stroke:none"
             id="path4698" />
        </g>
        <g
           id="g4700"
           transform="translate(140.3604,381.7007)">
          <path
             d="M 0,0 C 0.193,-0.201 0.459,-0.404 0.62,-0.669 0.746,-0.875 0.832,-1.181 0.78,-1.408 0.57,-2.334 -0.033,-2.923 -0.942,-3.194 -1.299,-3.3 -1.607,-3.215 -1.873,-2.943 -2.057,-2.753 -2.265,-2.586 -2.454,-2.417 -1.619,-1.594 -0.828,-0.815 0,0"
             style="fill:#00f5e9;fill-opacity:1;fill-rule:nonzero;stroke:none"
             id="path4702" />
        </g>
      </g>
    </g>
    <g
       aria-label="SEO"
       transform="matrix(1.0814353,0,0,0.92469703,-184.04105,23.346664)"
       id="text4706"
       style="font-weight:bold;font-size:7.40202px;font-family:Montserrat;-inkscape-font-specification:Montserrat-Bold;fill:#ffffff;stroke-width:0.326213">
      <path
         d="m 251.76146,43.117442 q -0.62177,0 -1.19173,-0.162844 -0.56995,-0.170247 -0.91785,-0.43672 l 0.40711,-0.903046 q 0.33309,0.236865 0.78462,0.392307 0.45892,0.148041 0.92525,0.148041 0.3553,0 0.56996,-0.06662 0.22206,-0.07402 0.32568,-0.199854 0.10363,-0.125835 0.10363,-0.288679 0,-0.207257 -0.16284,-0.325689 -0.16285,-0.125834 -0.42932,-0.199854 -0.26647,-0.08142 -0.59216,-0.148041 -0.31829,-0.07402 -0.64398,-0.177648 -0.31828,-0.103629 -0.58476,-0.266473 -0.26647,-0.162844 -0.43671,-0.429317 -0.16285,-0.266473 -0.16285,-0.680986 0,-0.444121 0.23687,-0.80682 0.24426,-0.370101 0.72539,-0.58476 0.48854,-0.22206 1.22134,-0.22206 0.48853,0 0.96226,0.118432 0.47373,0.11103 0.83643,0.340493 l -0.3701,0.910448 q -0.3627,-0.207256 -0.7254,-0.303482 -0.3627,-0.103629 -0.7106,-0.103629 -0.34789,0 -0.56995,0.08142 -0.22206,0.08142 -0.31829,0.214659 -0.0962,0.125834 -0.0962,0.296081 0,0.199854 0.16284,0.325689 0.16284,0.118432 0.42932,0.192452 0.26647,0.07402 0.58476,0.148041 0.32569,0.07402 0.64397,0.170246 0.32569,0.09623 0.59216,0.259071 0.26648,0.162844 0.42932,0.429317 0.17025,0.266473 0.17025,0.673584 0,0.436719 -0.24427,0.799418 -0.24427,0.362699 -0.7328,0.584759 -0.48113,0.222061 -1.22133,0.222061 z"
         id="path7299" />
      <path
         d="m 256.77263,39.934574 h 2.49448 v 0.932654 h -2.49448 z m 0.0888,2.131781 h 2.82017 v 0.962263 h -4.01189 v -5.181414 h 3.91567 v 0.962262 h -2.72395 z"
         id="path7301" />
      <path
         d="m 264.02662,43.117442 q -0.61436,0 -1.13991,-0.199854 -0.51814,-0.199855 -0.90304,-0.562554 -0.37751,-0.362699 -0.59217,-0.851232 -0.20725,-0.488534 -0.20725,-1.065891 0,-0.577358 0.20725,-1.065891 0.21466,-0.488533 0.59957,-0.851232 0.3849,-0.362699 0.90304,-0.562554 0.51815,-0.199854 1.12511,-0.199854 0.61437,0 1.12511,0.199854 0.51814,0.199855 0.89564,0.562554 0.38491,0.362699 0.59957,0.851232 0.21465,0.481131 0.21465,1.065891 0,0.577357 -0.21465,1.073293 -0.21466,0.488533 -0.59957,0.851232 -0.3775,0.355297 -0.89564,0.555152 -0.51074,0.199854 -1.11771,0.199854 z m -0.007,-1.021479 q 0.3479,0 0.63657,-0.118432 0.29609,-0.118432 0.51815,-0.340493 0.22206,-0.22206 0.34049,-0.525543 0.12583,-0.303483 0.12583,-0.673584 0,-0.370101 -0.12583,-0.673584 -0.11843,-0.303483 -0.34049,-0.525543 -0.21466,-0.222061 -0.51074,-0.340493 -0.29608,-0.118433 -0.64398,-0.118433 -0.34789,0 -0.64397,0.118433 -0.28868,0.118432 -0.51074,0.340493 -0.22206,0.22206 -0.3479,0.525543 -0.11843,0.303483 -0.11843,0.673584 0,0.362699 0.11843,0.673584 0.12584,0.303483 0.34049,0.525543 0.22206,0.222061 0.51815,0.340493 0.29608,0.118432 0.64397,0.118432 z"
         id="path7303" />
    </g>
    <g
       aria-label="company"
       transform="matrix(1.0814366,0,0,0.92469591,-184.04105,23.346664)"
       id="text4710"
       style="font-weight:bold;font-size:2.89644px;font-family:Montserrat;-inkscape-font-specification:Montserrat-Bold;fill:#ffffff;stroke-width:0.326212">
      <path
         d="m 250.98316,46.4582 q -0.25199,0 -0.44894,-0.101376 -0.19696,-0.104272 -0.30992,-0.286747 -0.11007,-0.182476 -0.11007,-0.414191 0,-0.234612 0.11007,-0.414191 0.11296,-0.182476 0.30992,-0.283851 0.19695,-0.104272 0.44894,-0.104272 0.2462,0 0.42868,0.104272 0.18247,0.101375 0.26937,0.29254 l -0.35047,0.188269 q -0.0608,-0.110065 -0.15352,-0.162201 -0.0898,-0.05214 -0.19695,-0.05214 -0.11586,0 -0.20855,0.05214 -0.0927,0.05214 -0.14772,0.147719 -0.0521,0.09558 -0.0521,0.231715 0,0.136132 0.0521,0.231715 0.055,0.09558 0.14772,0.147718 0.0927,0.05214 0.20855,0.05214 0.10717,0 0.19695,-0.04924 0.0927,-0.05214 0.15352,-0.165097 l 0.35047,0.191165 q -0.0869,0.188268 -0.26937,0.29254 -0.18248,0.101376 -0.42868,0.101376 z"
         id="path7306" />
      <path
         d="m 253.01067,46.4582 q -0.24909,0 -0.44315,-0.104272 -0.19117,-0.104272 -0.30413,-0.283851 -0.11007,-0.182476 -0.11007,-0.414191 0,-0.234612 0.11007,-0.414191 0.11296,-0.182476 0.30413,-0.283851 0.19406,-0.104272 0.44315,-0.104272 0.2462,0 0.44026,0.104272 0.19406,0.101375 0.30413,0.280954 0.11006,0.17958 0.11006,0.417088 0,0.231715 -0.11006,0.414191 -0.11007,0.179579 -0.30413,0.283851 -0.19406,0.104272 -0.44026,0.104272 z m 0,-0.370745 q 0.11296,0 0.20275,-0.05214 0.0898,-0.05214 0.14193,-0.147718 0.0521,-0.09848 0.0521,-0.231715 0,-0.136133 -0.0521,-0.231715 -0.0521,-0.09558 -0.14193,-0.147719 -0.0898,-0.05214 -0.20275,-0.05214 -0.11296,0 -0.20275,0.05214 -0.0898,0.05214 -0.14482,0.147719 -0.0521,0.09558 -0.0521,0.231715 0,0.133236 0.0521,0.231715 0.055,0.09558 0.14482,0.147718 0.0898,0.05214 0.20275,0.05214 z"
         id="path7308" />
      <path
         d="m 256.50955,44.853572 q 0.18537,0 0.3273,0.07531 0.14482,0.07241 0.22592,0.225923 0.084,0.150614 0.084,0.388123 v 0.892103 h -0.45185 v -0.822589 q 0,-0.188268 -0.0782,-0.278058 -0.0782,-0.08979 -0.22013,-0.08979 -0.0985,0 -0.17668,0.04634 -0.0782,0.04345 -0.12165,0.133237 -0.0435,0.08979 -0.0435,0.228818 v 0.782039 h -0.45185 v -0.822589 q 0,-0.188268 -0.0782,-0.278058 -0.0753,-0.08979 -0.21723,-0.08979 -0.0985,0 -0.17669,0.04634 -0.0782,0.04345 -0.12165,0.133237 -0.0434,0.08979 -0.0434,0.228818 v 0.782039 h -0.45185 V 44.87674 h 0.43157 v 0.425777 l -0.0811,-0.124547 q 0.0811,-0.159304 0.22882,-0.240404 0.15062,-0.084 0.34178,-0.084 0.21434,0 0.37364,0.110065 0.1622,0.107168 0.21434,0.330194 l -0.15931,-0.04345 q 0.0782,-0.182476 0.2491,-0.289644 0.17378,-0.107168 0.39681,-0.107168 z"
         id="path7310" />
      <path
         d="m 258.82093,46.4582 q -0.19696,0 -0.34468,-0.08689 -0.14772,-0.08689 -0.23172,-0.263576 -0.0811,-0.179579 -0.0811,-0.451844 0,-0.275162 0.0782,-0.451845 0.0782,-0.176683 0.22592,-0.263576 0.14772,-0.08689 0.35337,-0.08689 0.22013,0 0.39391,0.101375 0.17668,0.09848 0.27806,0.278058 0.10427,0.17958 0.10427,0.422881 0,0.246197 -0.10427,0.425776 -0.10138,0.17958 -0.27806,0.278059 -0.17378,0.09848 -0.39391,0.09848 z m -0.92107,0.538737 v -2.120194 h 0.43157 v 0.318609 l -0.009,0.46343 0.029,0.460534 v 0.877621 z m 0.84286,-0.909482 q 0.11296,0 0.19986,-0.05214 0.0898,-0.05214 0.14192,-0.147718 0.055,-0.09848 0.055,-0.231715 0,-0.136133 -0.055,-0.231715 -0.0521,-0.09558 -0.14192,-0.147719 -0.0869,-0.05214 -0.19986,-0.05214 -0.11296,0 -0.20275,0.05214 -0.0898,0.05214 -0.14192,0.147719 -0.0521,0.09558 -0.0521,0.231715 0,0.133236 0.0521,0.231715 0.0521,0.09558 0.14192,0.147718 0.0898,0.05214 0.20275,0.05214 z"
         id="path7312" />
      <path
         d="m 261.17603,46.435028 v -0.304126 l -0.029,-0.06662 v -0.544531 q 0,-0.144822 -0.0898,-0.225922 -0.0869,-0.0811 -0.26937,-0.0811 -0.12454,0 -0.24619,0.04055 -0.11876,0.03765 -0.20275,0.104271 l -0.16221,-0.315712 q 0.12745,-0.08979 0.30703,-0.139029 0.17958,-0.04924 0.36495,-0.04924 0.35626,0 0.55322,0.167993 0.19696,0.167994 0.19696,0.524256 v 0.889207 z m -0.47502,0.02317 q -0.18248,0 -0.31282,-0.06083 -0.13033,-0.06372 -0.19985,-0.17089 -0.0695,-0.107168 -0.0695,-0.240404 0,-0.139029 0.0666,-0.243301 0.0695,-0.104272 0.21724,-0.162201 0.14772,-0.06083 0.38522,-0.06083 h 0.41419 v 0.263576 h -0.36495 q -0.1593,0 -0.22013,0.05214 -0.0579,0.05214 -0.0579,0.13034 0,0.08689 0.0666,0.139029 0.0695,0.04924 0.18827,0.04924 0.11296,0 0.20275,-0.05214 0.0898,-0.05503 0.13034,-0.159304 l 0.0695,0.208544 q -0.0492,0.150615 -0.17958,0.228819 -0.13034,0.0782 -0.33599,0.0782 z"
         id="path7314" />
      <path
         d="m 263.30201,44.853572 q 0.18537,0 0.3302,0.07531 0.14771,0.07241 0.23171,0.225923 0.084,0.150614 0.084,0.388123 v 0.892103 h -0.45185 v -0.822589 q 0,-0.188268 -0.084,-0.278058 -0.0811,-0.08979 -0.23172,-0.08979 -0.10717,0 -0.19406,0.04634 -0.084,0.04345 -0.13324,0.136133 -0.0463,0.09269 -0.0463,0.237508 v 0.770453 h -0.45184 v -1.558285 h 0.43157 v 0.43157 l -0.0811,-0.13034 q 0.084,-0.156408 0.24041,-0.240404 0.15641,-0.084 0.35626,-0.084 z"
         id="path7316" />
      <path
         d="m 264.87187,47.020109 q -0.12165,0 -0.2404,-0.03765 -0.11876,-0.03765 -0.19406,-0.104272 l 0.16509,-0.321504 q 0.0521,0.04634 0.11876,0.07241 0.0695,0.02607 0.13613,0.02607 0.0956,0 0.15061,-0.04634 0.0579,-0.04345 0.10428,-0.147718 l 0.0811,-0.191165 0.0348,-0.04924 0.55902,-1.343949 h 0.43446 l -0.70383,1.653868 q -0.0753,0.188268 -0.17379,0.295436 -0.0956,0.107169 -0.21434,0.150615 -0.11585,0.04345 -0.25778,0.04345 z m 0.26647,-0.524256 -0.69514,-1.61911 h 0.46632 l 0.53874,1.303398 z"
         id="path7318" />
    </g>
  </g>
</svg>
