<?xml version="1.0" encoding="UTF-8" standalone="no"?>
<!-- Created with Inkscape (http://www.inkscape.org/) -->

<svg
   width="15.966922mm"
   height="12.27362mm"
   viewBox="0 0 15.966922 12.27362"
   version="1.1"
   id="svg7670"
   xmlns="http://www.w3.org/2000/svg"
   xmlns:svg="http://www.w3.org/2000/svg">
  <defs
     id="defs7667" />
  <g
     id="layer1"
     transform="translate(-96.710416,-215.92441)">
    <g
       id="g4738"
       transform="matrix(0.35277777,0,0,-0.35277777,109.54219,221.8377)">
      <path
         d="m 0,0 c 4.368,0.61 7.9,-2.691 7.887,-7.372 -0.012,-4.686 -3.565,-8.977 -7.933,-9.587 -4.372,-0.612 -7.905,2.689 -7.892,7.376 C -7.925,-4.903 -4.373,-0.611 0,0 Z"
         style="fill:none;stroke:#000000;stroke-width:2;stroke-linecap:butt;stroke-linejoin:miter;stroke-miterlimit:10;stroke-dasharray:none;stroke-opacity:1"
         id="path4740" />
    </g>
    <g
       id="g4742"
       transform="matrix(0.35277777,0,0,-0.35277777,106.77165,224.80894)">
      <path
         d="M 0,0 C 0.024,0.195 0.047,0.391 0.084,0.584 0.106,0.698 0.138,0.81 0.164,0.923 0.203,1.093 0.237,1.263 0.285,1.43 0.319,1.55 0.363,1.667 0.402,1.787 0.453,1.942 0.5,2.099 0.558,2.252 0.651,2.499 0.755,2.741 0.867,2.979 0.897,3.042 0.931,3.103 0.962,3.166 1.043,3.329 1.127,3.49 1.217,3.648 1.393,3.958 1.582,4.26 1.788,4.549 1.832,4.612 1.881,4.671 1.927,4.733 2.085,4.945 2.25,5.15 2.422,5.349 c 0.07,0.079 0.14,0.157 0.212,0.234 0.177,0.191 0.361,0.374 0.551,0.549 0.058,0.053 0.114,0.11 0.173,0.162 0.261,0.229 0.534,0.443 0.817,0.642 0.153,0.106 0.309,0.208 0.468,0.306 0.05,0.031 0.1,0.066 0.151,0.096 0.221,0.13 0.447,0.25 0.677,0.359 C 5.517,7.719 5.564,7.738 5.61,7.759 5.792,7.841 5.975,7.917 6.161,7.987 6.236,8.015 6.312,8.041 6.387,8.066 6.556,8.124 6.728,8.175 6.9,8.222 6.973,8.242 7.046,8.263 7.119,8.28 7.361,8.338 7.605,8.388 7.854,8.422 8.099,8.457 8.341,8.475 8.582,8.485 8.651,8.488 8.721,8.488 8.79,8.489 8.97,8.491 9.148,8.487 9.324,8.476 9.388,8.472 9.453,8.469 9.516,8.464 9.745,8.443 9.972,8.414 10.193,8.371 10.223,8.365 10.252,8.357 10.281,8.351 10.475,8.311 10.664,8.262 10.851,8.206 10.922,8.185 10.993,8.162 11.064,8.138 11.177,8.1 11.288,8.059 11.397,8.015 11.471,7.985 11.543,7.956 11.615,7.924 11.726,7.875 11.833,7.822 11.94,7.768 12.032,7.721 12.125,7.676 12.215,7.625 L -15.22,23.32 c -0.045,0.026 -0.091,0.052 -0.136,0.076 -0.045,0.025 -0.094,0.044 -0.14,0.067 -0.107,0.055 -0.213,0.107 -0.323,0.156 -0.072,0.032 -0.145,0.062 -0.219,0.091 -0.109,0.044 -0.22,0.084 -0.333,0.123 -0.043,0.014 -0.084,0.033 -0.127,0.046 -0.028,0.01 -0.059,0.014 -0.087,0.022 -0.186,0.057 -0.375,0.105 -0.568,0.145 -0.03,0.006 -0.059,0.015 -0.089,0.02 -0.221,0.043 -0.448,0.072 -0.677,0.093 -0.063,0.006 -0.128,0.008 -0.192,0.012 -0.176,0.011 -0.354,0.015 -0.534,0.013 -0.07,-0.001 -0.139,-0.001 -0.209,-0.004 -0.24,-0.01 -0.482,-0.028 -0.728,-0.062 -0.248,-0.035 -0.492,-0.085 -0.734,-0.142 -0.074,-0.018 -0.146,-0.039 -0.219,-0.059 -0.173,-0.046 -0.343,-0.098 -0.512,-0.155 -0.077,-0.026 -0.152,-0.052 -0.227,-0.08 -0.186,-0.069 -0.37,-0.146 -0.55,-0.228 -0.047,-0.021 -0.094,-0.039 -0.141,-0.061 -0.012,-0.006 -0.024,-0.011 -0.036,-0.017 -0.218,-0.105 -0.431,-0.22 -0.64,-0.342 -0.052,-0.031 -0.101,-0.066 -0.152,-0.097 -0.137,-0.084 -0.274,-0.167 -0.407,-0.259 -0.021,-0.014 -0.039,-0.032 -0.06,-0.047 -0.283,-0.198 -0.555,-0.412 -0.817,-0.641 -0.015,-0.013 -0.031,-0.024 -0.046,-0.037 -0.045,-0.039 -0.084,-0.086 -0.127,-0.126 -0.191,-0.176 -0.375,-0.358 -0.552,-0.548 -0.036,-0.04 -0.077,-0.073 -0.113,-0.113 -0.034,-0.039 -0.064,-0.083 -0.098,-0.122 -0.173,-0.198 -0.337,-0.404 -0.495,-0.616 -0.035,-0.047 -0.076,-0.089 -0.11,-0.136 -0.011,-0.016 -0.019,-0.032 -0.03,-0.047 -0.205,-0.289 -0.395,-0.591 -0.57,-0.901 -0.014,-0.025 -0.032,-0.048 -0.046,-0.073 -0.074,-0.134 -0.141,-0.272 -0.209,-0.41 -0.031,-0.063 -0.066,-0.124 -0.095,-0.187 -0.108,-0.23 -0.209,-0.463 -0.301,-0.7 -0.003,-0.009 -0.006,-0.018 -0.008,-0.027 -0.059,-0.153 -0.105,-0.309 -0.156,-0.464 -0.039,-0.12 -0.083,-0.237 -0.117,-0.358 -0.048,-0.166 -0.082,-0.336 -0.121,-0.505 -0.026,-0.114 -0.058,-0.226 -0.08,-0.341 -0.037,-0.193 -0.06,-0.388 -0.085,-0.583 -0.011,-0.094 -0.03,-0.187 -0.04,-0.282 -0.028,-0.291 -0.043,-0.584 -0.044,-0.88 -0.008,-2.954 1.394,-5.358 3.526,-6.578 L 3.441,-7.74 c -2.132,1.22 -3.534,3.624 -3.525,6.579 0,0.295 0.015,0.589 0.044,0.88 C -0.031,-0.187 -0.012,-0.094 0,0 Z"
         style="fill:none;stroke:#000000;stroke-width:2;stroke-linecap:butt;stroke-linejoin:miter;stroke-miterlimit:10;stroke-dasharray:none;stroke-opacity:1"
         id="path4744" />
    </g>
  </g>
</svg>
